# xmcd CD database file
#
# Track frame offsets:
#	183
#	14393
#	30233
#	44205
#	57025
#	71283
#	84968
#	98975
#	112530
#	127700
#	142273
#	154883
#	167313
#	183250
#	198480
#	213613
#	224933
#	239658
#	253728
#	266335
#	279628
#	290428
#	301815
#	316895
#	330465
#
# Disc length: 4590 seconds
#
# Revision: 0
# Processed by: cddbd v1.5.1PL0 Copyright (c) Steve Scherf et al.
# Submitted via: CDex 1.51
#
DISCID=6711ec19
DTITLE=Jelly Roll Morton and His Orchestra - Vol. 4 - 1928-1929
DYEAR=1993
DGENRE=Jazz
TTITLE0=Red Hot Pepper (Stomp)
TTITLE1=Deep Creek (Blues)
TTITLE2=Seattle Hunch
TTITLE3=Freakish
TTITLE4=Burning the Iceberg (take 1)
TTITLE5=Burning the Iceberg (take 2)
TTITLE6=Courthouse Bump (take 1)
TTITLE7=Courthouse Bump (take 2)
TTITLE8=Pretty Lil (take 1)
TTITLE9=Pretty Lil (take 2)
TTITLE10=Sweet Anita Mine (take 1)
TTITLE11=Sweet Anita Mine (take 2)
TTITLE12=New Orleans Bump (Monrovia) (take 1)
TTITLE13=New Orleans Bump (Monrovia) (take 2)
TTITLE14=Down My Way
TTITLE15=Try Me Out
TTITLE16=Tank Down Bump (take 1)
TTITLE17=Tank Down Bump (take 2)
TTITLE18=Sweet Peter (take 1)
TTITLE19=Sweet Peter (take 2)
TTITLE20=Jersey Joe (take 1)
TTITLE21=Jersey Joe (take 2)
TTITLE22=Mississippi Mildred (take 1)
TTITLE23=Mississippi Mildred (take 2)
TTITLE24=Mint Julep
EXTD=YEAR: 1993
EXTT0=
EXTT1=
EXTT2=
EXTT3=
EXTT4=
EXTT5=
EXTT6=
EXTT7=
EXTT8=
EXTT9=
EXTT10=
EXTT11=
EXTT12=
EXTT13=
EXTT14=
EXTT15=
EXTT16=
EXTT17=
EXTT18=
EXTT19=
EXTT20=
EXTT21=
EXTT22=
EXTT23=
EXTT24=
PLAYORDER=
